<svg width="1515.662" height="1099.64" fill="none" xmlns="http://www.w3.org/2000/svg"><path d="M1032.777 412.12L757.728 137.304l-274.84 274.608-68.815-68.756L757.728 0l343.864 343.364zm413.875 412.12l-275.83-274.885-275.619 274.677-69.01-68.722 344.629-343.19 344.84 343.399z" fill="#e7e4e1"/><path d="M1446.652 1099.64l-275.83-275.981-275.619 275.771-69.01-69.05 344.629-344.816 344.84 345.026zm-826.191 0l-275.83-275.981L69.01 1099.43 0 1030.38l344.631-344.816 344.84 345.026z" fill="#e7e4e1"/><path d="M68.884 824.24L0 755.519l344.004-343.191 206.652 206.164L757.309 412.12l68.884 68.721-275.537 274.886-206.652-206.164z" fill="#e7e4e1"/></svg>