<svg xmlns="http://www.w3.org/2000/svg" viewBox="0 0 137.1 22.9"><path d="M63 16.5c0 3.1-.3 4.3-1.3 5.2-.9.8-2.4 1.1-5.7 1.1-3.2 0-4.7-.3-5.6-1-.9-.7-1.4-1.7-1.3-2.8v-.2h1.7v.2c0 .6.2 1.2.7 1.7.7.6 1.6.7 4.7.7 3.4 0 4.4-.3 4.9-1.4.3-.8.4-1.4.4-4-.8 1.4-2 1.8-5.5 1.8-3.3 0-4.8-.3-5.7-1.1-1-.8-1.4-2.2-1.4-4.6 0-2.4.4-3.7 1.4-4.6.9-.8 2.5-1.1 5.8-1.1 3.6 0 4.7.4 5.5 1.8V6.6H63v9.9zM51 8.8c-.5.6-.7 1.6-.7 3.3 0 1.9.3 2.9.9 3.5.7.7 1.6.8 4.6.8 3.2 0 4.1-.2 4.8-1 .6-1 .8-2.1.7-3.3 0-1.9-.3-2.9-.9-3.5-.7-.6-1.6-.8-4.5-.8-3.3 0-4.2.2-4.9 1M19.4 6.6L11.9 18H21l7.6-11.4h-9.2zM0 6.6L7.6 18h2.1L2.1 6.6H0zm43-.1h-8.7V18H43V6.5zM43 0h-8.7v1.6H43V0zm55.3 7.5c1 .8 1.4 2.2 1.4 4.7 0 2.3-.4 3.7-1.4 4.5-.9.8-2.5 1.1-5.9 1.1-3.3 0-4.9-.3-5.8-1.1-1-.8-1.4-2.2-1.4-4.6 0-2.4.4-3.7 1.4-4.6.9-.8 2.5-1.1 5.8-1.1 3.4 0 4.9.3 5.9 1.1M87.7 8.8c-.6 1-.8 2.2-.7 3.3 0 1.9.3 2.9.9 3.5.6.6 1.8.8 4.6.8 3 0 4.1-.2 4.8-1 .5-1 .8-2.1.7-3.3 0-1.9-.3-3-.9-3.5-.6-.6-1.8-.8-4.5-.8-3.2 0-4.3.3-4.9 1m-19-2.2h1.7v2.2c.6-1.9 1.6-2.4 5.1-2.4 3.8 0 4.9 1 4.9 4.3v.7h-1.7v-.6c0-2.4-.7-2.9-3.7-2.9-3.3 0-4.6.9-4.6 3.3v6.5h-1.7V6.6zm49.1 11.3h-1.7v-2.2c-.7 2-1.9 2.5-5.9 2.5-2.4 0-3.6-.2-4.5-.9s-1.2-1.6-1.2-3.5v-7h1.7v6.9c0 2.4.8 2.9 4.5 2.9 4 0 5.5-.9 5.5-3.3V6.8h1.7l-.1 11.1zm6.7-11.3v1.6c.7-1.4 2-1.8 5.6-1.8 3.3 0 4.8.3 5.7 1.1 1 .8 1.4 2.2 1.4 4.6 0 2.4-.4 3.7-1.4 4.6-.9.8-2.5 1.1-5.7 1.1-3.6 0-4.8-.4-5.6-1.8v6.3h-1.7V6.6h1.7zm.6 2.2c-.5 1-.8 2.1-.7 3.3 0 3.8.7 4.4 5.4 4.4 3 0 4.2-.2 4.8-1 .6-1 .8-2.2.7-3.3 0-1.8-.3-2.9-.9-3.5-.6-.6-1.8-.8-4.6-.8-2.9-.1-4.1.1-4.7.9" fill="#222"/></svg>